<?xml version="1.0" encoding="UTF-8"?>
<svg xmlns="http://www.w3.org/2000/svg" version="1.1" viewBox="0 0 50 19.2">
  <defs>
    <style>
      .cls-1, .cls-2 {
        fill-rule: evenodd;
      }

      .cls-1, .cls-3 {
        fill: #9b6763;
      }

      .cls-4, .cls-2 {
        fill: #b8978c;
      }
    </style>
  </defs>
  <!-- Generator: Adobe Illustrator 28.6.0, SVG Export Plug-In . SVG Version: 1.2.0 Build 709)  -->
  <g>
    <g id="Layer_1">
      <g id="Layer_1-2" data-name="Layer_1">
        <path class="cls-3" d="M3.9,14h.6v-4.3h-.6v-.3h.8c.4,0,.7.1.9.4,0,0,.2.2.2.3,0-.2.2-.3.3-.4.3-.3.6-.4,1.1-.4s.7,0,.9.2c.2.2.5.3.7.6.2.2.2.5.2.8v3h.6v.3h-1.2c-.6,0-.8-.3-.8-.8v-2.5c0-.4,0-.7-.2-.9,0-.2-.3-.3-.5-.3s-.5.1-.6.4c0,.1-.2.2-.2.4v3.5h.6v.3h-2.6s-.2-.3-.2-.3Z"/>
        <path class="cls-3" d="M10.2,14h.6v-4.3h-.6v-.3h1.2c.6,0,.8.3.8.8v3.6h.6v.3h-2.6Z"/>
        <path class="cls-3" d="M13.4,14h.6v-4.3h-.6v-.3h.8c.4,0,.7.1.9.4,0,0,.2.2.2.3,0-.1.2-.3.3-.4.3-.3.7-.4,1.1-.4s.6,0,.8.2c.2.2.2.4.2.7s0,.4-.2.5c-.1.1-.3.2-.5.2h-.4v-1.4c-.3,0-.6.1-.9.4s-.2.3-.3.4v3.5h.6v.3h-2.6Z"/>
        <path class="cls-3" d="M21.4,14h.6v-4.3h-.6v-.3h1.2c.6,0,.8.3.8.8v3.6h.6v.3h-2.6Z"/>
        <path class="cls-3" d="M24.5,15.8h.6v-6.2h-.6v-.3h.8c.4,0,.7.1.9.4,0,0,.2.2.2.3,0-.2.2-.3.3-.4.3-.3.6-.4,1.1-.4s.7,0,1,.3c.3.2.5.5.7.9s.3.8.3,1.4-.2,1.4-.6,1.9-.9.6-1.5.6-.6,0-.8-.2c0,0-.2-.1-.3-.2v1.8h.6v.3h-2.6v-.2h-.1ZM27.9,13.5c.1-.3.2-.9.2-1.7s0-1.4-.2-1.7c-.1-.3-.3-.5-.5-.5s-.5.1-.6.4c0,.1-.2.2-.2.4v3.3l.2.2c.2.1.3.2.5.2.3,0,.5-.2.6-.5h0Z"/>
        <path class="cls-3" d="M31.9,14c-.3-.2-.5-.4-.7-.6-.2-.3-.2-.6-.2-.9v-2.9h-.7v-.2h.7v-.5c0-.6.3-.9.8-.9h.7v1.3h1.3v.2h-1.3v2.9c0,.6,0,1,.2,1.2,0,.2.3.3.5.3s.4-.1.6-.3c.2-.2.3-.5.3-.9h.2c0,.5,0,.8-.3,1.1s-.5.4-.9.4-.8,0-1.1-.2h0Z"/>
        <path class="cls-3" d="M35,13.9c0,0-.3-.4-.2-.9,0-.5.4-.8.5-.9.7-.3,1.8-.3,2.5-.5v-.7c0-.6,0-.8-.6-1.2-.2-.2-.6-.2-.9-.1v1q0,.5-.3.5c-.3,0-.6,0-.7-.4-.6-1.4,2.1-1.6,2.9-1,1.6.8,1,2.8,1.1,4.2,0,.2.8,0,.6.3h-1.2c-.4-.1-.5-.3-.7-.5,0,0-.2.3-.6.5-.6.3-1.7.2-2.1-.2h-.2ZM37.7,13.1c0-.4,0-.8,0-1.2-.5,0-.9.2-1.4.3-.3.2-.4.5-.3.7,0,0,.1.2.2.3.4.5.4.5.5.6.3.2.8-.2,1-.4v-.3Z"/>
        <path class="cls-3" d="M40.4,14h.6v-6.2h-.6v-.3h1.2c.6,0,.9.3.9.9v1.5c0-.1.2-.2.3-.3.3-.2.6-.3.9-.3s.7,0,.9.2.5.3.7.6c.2.2.2.5.2.8v3h.6v.3h-1.2c-.6,0-.9-.3-.9-.8v-2.5c0-.4,0-.7-.2-.9s-.3-.3-.5-.3-.5.1-.6.4c0,.1-.2.2-.2.4v3.5h.6v.3h-2.6v-.3h-.1Z"/>
        <path class="cls-3" d="M20.2,8.4v-.2c-.2,0-.4-.2-.6-.3-.2,0-.3-.3-.4-.4h-1.1v.3h.6v6.2h-.6v.2h2.6v-.3h-.6v-5.5h.1Z"/>
        <path class="cls-2" d="M15.8,6.9c-.2.2-.4.4-.7.3-.7-.2.4-1.5.6-1.7,1-1,3.1-2.3,4.1-.6.4.7.4,2,1.1,1.9,1.1,0,4.1-1.8,5.3-2.2,2.9-1.1,5.5-.6,8.3.6,2.9,1.3,4.2,2.2,7.4,1.2.4,0,.2,0,.7-.2-.3.4-.4.4-.8.6-3.7,2.1-6.6-.5-10.2-1.2-2.9-.5-4.9.5-7.5,1.6-1.1.5-3.3,1.4-4.3.5-.7-.6-.6-1.4-.9-2.1-.3-1-1.5-.4-2.1,0s-1.1.7-1.5,1.3h.6s-.1,0-.1,0ZM15.2,6.9h0Z"/>
        <path class="cls-4" d="M43.7,16.1c-.4,0-.7-.3-.7-.7s.3-.7.7-.7.7.3.7.7-.3.7-.7.7Z"/>
        <path class="cls-1" d="M10.4,6.8v.2c.2.2.7,0,1,0-.4.4-1,1-.5,1.3.6.4,2.4-1,2.8-1.5s1.1-1.2.6-1.8c-.5-.7-1.7-.5-2.4-.2-1.5.5-3.5,2.2-3.9,3.9v.4c0-.2,0,0,.2-.2.6-1.2,1.4-2,2.5-2.7.6-.4,2-1,2.6-.7.1,0,.2,0,.2.2-.2.6-1.4,1.6-2.1,2h0c.2-.2.7-.7.4-.9-.2-.2-.8.2-1.1.2h-.4v-.2ZM11.9,6.4h0ZM11.3,7.7h0Z"/>
        <path class="cls-3" d="M21.8,8.5h0c.2.2.3.2.5.2s.4,0,.5-.2c.2-.2.2-.3.2-.4-.4.1-.8.3-1.2.3h0Z"/>
      </g>
      <path class="cls-3" d="M39.5,11.9"/>
    </g>
  </g>
</svg>